<?xml version="1.0" encoding="utf-8"?>
<!-- Generator: Adobe Illustrator 17.0.0, SVG Export Plug-In . SVG Version: 6.00 Build 0)  -->
<!DOCTYPE svg PUBLIC "-//W3C//DTD SVG 1.1//EN" "http://www.w3.org/Graphics/SVG/1.1/DTD/svg11.dtd">
<svg version="1.1" id="f0fe1592-aa5e-490a-ae8c-c1f7049c595f"
	 xmlns="http://www.w3.org/2000/svg" xmlns:xlink="http://www.w3.org/1999/xlink" x="0px" y="0px" width="1039px" height="564.4px"
	 viewBox="0 0 1039 564.4" enable-background="new 0 0 1039 564.4" xml:space="preserve">
<title>portfolio update</title>
<rect x="186" y="130.132" fill="#3F3D56" width="667" height="432.625"/>
<circle fill="none" stroke="#3F3D56" stroke-width="2" stroke-miterlimit="10" cx="875.352" cy="206.263" r="14.756"/>
<circle fill="none" stroke="#3F3D56" stroke-width="2" stroke-miterlimit="10" cx="134.352" cy="145.263" r="14.756"/>
<rect x="394.909" y="216.548" opacity="0.3" fill="#0AA172" enable-background="new    " width="85.577" height="85.577"/>
<rect x="535.021" y="216.548" fill="#3AC19A" width="85.577" height="85.577"/>
<rect x="675.133" y="216.548" fill="#5206BA" width="85.577" height="85.577"/>
<rect x="254.797" y="337.363" opacity="0.3" fill="#6C63FF" enable-background="new    " width="85.577" height="85.577"/>
<rect x="394.909" y="337.363" fill="#782AE3" width="85.577" height="85.577"/>
<rect x="535.021" y="337.363" opacity="0.3" fill="#5206BA" enable-background="new    " width="85.577" height="85.577"/>
<rect x="675.133" y="337.363" opacity="0.3" fill="#7AF0D1" enable-background="new    " width="85.577" height="85.577"/>
<rect x="266.543" y="206.48" fill="none" stroke="#F2F2F2" stroke-width="2" stroke-miterlimit="10" width="85.577" height="85.577"/>
<rect x="406.655" y="206.48" fill="none" stroke="#3F3D56" stroke-width="2" stroke-miterlimit="10" width="85.577" height="85.577"/>
<rect x="546.767" y="206.48" fill="none" stroke="#3F3D56" stroke-width="2" stroke-miterlimit="10" width="85.577" height="85.577"/>
<rect x="686.879" y="206.48" fill="none" stroke="#3F3D56" stroke-width="2" stroke-miterlimit="10" width="85.577" height="85.577"/>
<rect x="266.543" y="327.295" fill="none" stroke="#3F3D56" stroke-width="2" stroke-miterlimit="10" width="85.577" height="85.577"/>
<rect x="406.655" y="327.295" fill="none" stroke="#3F3D56" stroke-width="2" stroke-miterlimit="10" width="85.577" height="85.577"/>
<rect x="546.767" y="327.295" fill="none" stroke="#3F3D56" stroke-width="2" stroke-miterlimit="10" width="85.577" height="85.577"/>
<rect x="686.879" y="327.295" fill="none" stroke="#3F3D56" stroke-width="2" stroke-miterlimit="10" width="85.577" height="85.577"/>
<circle fill="#6C63FF" cx="201.941" cy="141.458" r="4.195"/>
<circle fill="#6C63FF" cx="214.526" cy="141.458" r="4.195"/>
<circle fill="#6C63FF" cx="227.111" cy="141.458" r="4.195"/>
<circle fill="none" stroke="#3F3D56" stroke-width="2" stroke-miterlimit="10" cx="201.941" cy="141.458" r="4.195"/>
<circle fill="none" stroke="#3F3D56" stroke-width="2" stroke-miterlimit="10" cx="214.526" cy="141.458" r="4.195"/>
<circle fill="none" stroke="#3F3D56" stroke-width="2" stroke-miterlimit="10" cx="227.111" cy="141.458" r="4.195"/>
<polygon fill="#F2F2F2" points="178.441,0 134.517,99.757 405,99.757 "/>
<circle fill="none" stroke="#3F3D56" stroke-width="2" stroke-miterlimit="10" cx="239.619" cy="27.263" r="14.756"/>
<circle fill="#6C63FF" cx="855" cy="465.757" r="42"/>
<path fill="#9F616A" d="M197.169,362.131l1.79,10.141l25.055-11.931c0,0,22.669-14.317,18.493-4.176s-16.703,12.528-16.703,12.528
	s-26.845,23.862-32.81,20.283s-9.545-23.265-9.545-23.265L197.169,362.131z"/>
<path opacity="0.1" enable-background="new    " d="M197.169,362.131l1.79,10.141l25.055-11.931c0,0,22.669-14.317,18.493-4.176
	s-16.703,12.528-16.703,12.528s-26.845,23.862-32.81,20.283s-9.545-23.265-9.545-23.265L197.169,362.131z"/>
<path fill="#9F616A" d="M226.996,450.421l-0.597,30.424l-16.107,59.058l-13.124-1.79c0,0,3.579-15.51,1.79-23.265
	s8.948-27.441,8.948-27.441l-9.545-44.145L226.996,450.421z"/>
<path fill="#2F2E41" d="M209.696,538.114c0,0,2.386,0.597,2.386,2.386s1.79,9.545,7.755,11.334s17.897,11.931,8.948,12.528
	s-22.669-5.966-25.055-5.966s-7.159-0.597-8.352-2.386s-1.79-17.897,0-18.493S209.696,538.114,209.696,538.114z"/>
<path fill="#9F616A" d="M211.486,452.807l-19.09,34.003l-47.724,47.128l-6.562-11.931c0,0,14.914-22.072,15.51-24.459
	s16.703-13.124,16.703-13.124s13.124-22.072,10.738-31.617s29.231-11.334,29.231-11.334L211.486,452.807z"/>
<path fill="#2F2E41" d="M145.269,530.955v4.772c0,0.597-13.124,14.914-11.931,17.3s5.966,8.948,0.597,9.545
	s-9.545-4.176-9.545-10.141s-1.193-26.248,0.597-26.845s11.931-1.79,13.124-5.369S145.269,530.955,145.269,530.955z"/>
<circle fill="#9F616A" cx="177.781" cy="314.109" r="14.317"/>
<path fill="#9F616A" d="M187.624,320.969c0,0-0.597,14.914,1.193,16.703s-17.3,0.597-17.3,0.597s1.79-11.334-1.79-16.107
	S187.624,320.969,187.624,320.969z"/>
<rect x="226.625" y="297.548" fill="#9147F6" width="85.577" height="85.577"/>
<path fill="#2F2E41" d="M170.921,330.514c0,0,14.317,2.983,20.879,8.352s10.738,8.352,12.528,8.948s5.965,3.579,7.159,15.51
	s0.597,20.879,11.931,28.634s47.128,52.496,38.776,61.445s-13.124,11.931-16.703,7.755s-4.176-10.141-11.931-3.579
	s-13.721,14.317-17.3,8.352s-23.862-7.159-59.059-2.386s-26.845-12.528-21.476-20.879s41.162-41.759,46.531-45.934
	s-4.772-24.459-10.141-28.038S161.972,338.269,170.921,330.514z"/>
<path fill="#9F616A" d="M188.817,369.29l1.79,10.141l25.055-11.931c0,0,22.669-14.317,18.493-4.176s-16.703,12.528-16.703,12.528
	s-26.845,23.862-32.81,20.283s-9.545-23.265-9.545-23.265L188.817,369.29z"/>
<path fill="#2F2E41" d="M178.079,340.655c0,0,14.914,7.159,14.317,16.107s1.79,10.738-0.597,12.528s-15.51,10.738-17.3,5.966
	S162.569,346.024,178.079,340.655z"/>
<circle fill="#2F2E41" cx="155.338" cy="287.287" r="12.464"/>
<path fill="#2F2E41" d="M144.587,297.608c5.579,4.032,13.371,2.779,17.403-2.801c0.821-1.135,1.444-2.401,1.844-3.744
	c-0.859,6.83-7.092,11.671-13.922,10.812s-11.671-7.092-10.812-13.922c0.085-0.677,0.226-1.347,0.421-2.001
	C138.953,290.471,140.895,294.941,144.587,297.608z"/>
<circle fill="#2F2E41" cx="169.429" cy="305.757" r="18.493"/>
<ellipse fill="#9F616A" cx="184.045" cy="315.004" rx="2.088" ry="3.878"/>
<line fill="none" stroke="#F2F2F2" stroke-width="2" stroke-miterlimit="10" x1="186" y1="152.877" x2="853" y2="152.877"/>
<line fill="none" stroke="#3F3D56" stroke-width="2" stroke-miterlimit="10" x1="0" y1="562.757" x2="1039" y2="562.757"/>
<text transform="matrix(1 0 0 1 231.3055 340.6556)" font-family="'Montserrat-Regular'" font-size="14">INTERNET</text>
<text transform="matrix(1 0 0 1 420.3055 259.3368)" fill="#FFFFFF" font-family="'Montserrat-Regular'" font-size="14">WEB</text>
<text transform="matrix(1 0 0 1 413.322 374.6404)"><tspan x="0" y="0" fill="#FFFFFF" font-family="'Montserrat-Regular'" font-size="14">Réseaux</tspan><tspan x="0" y="16.8" fill="#FFFFFF" font-family="'Montserrat-Regular'" font-size="14">sociaux</tspan></text>
<text transform="matrix(1 0 0 1 548.6559 374.6403)"><tspan x="0" y="0" fill="#FFFFFF" font-family="'Montserrat-Regular'" font-size="12">Données</tspan><tspan x="0" y="14.4" fill="#FFFFFF" font-family="'Montserrat-Regular'" font-size="12">structurées</tspan></text>
<text transform="matrix(1 0 0 1 688.972 254.67)"><tspan x="0" y="0" fill="#FFFFFF" font-family="'Montserrat-Regular'" font-size="12">Géo</tspan><tspan x="0" y="14.4" fill="#FFFFFF" font-family="'Montserrat-Regular'" font-size="12">localisation</tspan></text>
<text transform="matrix(1 0 0 1 689.879 376.6404)"><tspan x="0" y="0" fill="#FFFFFF" font-family="'Montserrat-Regular'" font-size="12">Photo</tspan><tspan x="0" y="14.4" fill="#FFFFFF" font-family="'Montserrat-Regular'" font-size="12">numérique</tspan></text>
<text transform="matrix(1 0 0 1 550.6558 254.6698)"><tspan x="0" y="0" fill="#FFFFFF" font-family="'Montserrat-Regular'" font-size="10">Informatique</tspan><tspan x="0" y="12" fill="#FFFFFF" font-family="'Montserrat-Regular'" font-size="10">embarquée</tspan></text>
</svg>
